<svg class='Icon' width="24px" height="24px" viewBox="0 0 24 24" version="1.1" xmlns="http://www.w3.org/2000/svg" xmlns:xlink="http://www.w3.org/1999/xlink">
    <title>icon-box</title>
    <g id="box-icon" stroke="none" stroke-width="1" fill="none" fill-rule="evenodd">
        <g id="box" fill="#000000" fill-rule="nonzero">
            <path d="M11.4197607,0.102423155 C11.7050223,-0.0341410517 12.0478167,-0.0341410517 12.3330784,0.102423155 L23.4463893,5.25321738 C23.6598734,5.3670764 23.7906203,5.5728752 23.7906203,5.79504527 C23.7906203,6.01721533 23.6598734,6.22301413 23.4463893,6.33687315 L12.371453,11.4876674 C12.0699965,11.6245138 11.7135422,11.6245138 11.4120857,11.4876674 L0.337149483,6.33687315 C0.127499282,6.2204992 4.97379915e-14,6.01559701 4.97379915e-14,5.79504527 C4.97379915e-14,5.57449352 0.127499282,5.36959133 0.337149483,5.25321738 L11.4197607,0.102423155 Z M7.56098055,8.6271356 L17.303806,3.74700835 C17.4677076,3.66491091 17.526417,3.47911679 17.434937,3.33202555 C17.343457,3.18493431 17.1364292,3.13224643 16.9725276,3.21434387 L7.22970216,8.09447107 C7.0658005,8.17656855 7.00709114,8.36236268 7.09857114,8.50945388 C7.19005114,8.65654515 7.39707887,8.70923301 7.56098055,8.6271356 Z" id="Combined-Shape"></path>
            <path d="M12.3085359,23.6945638 C12.3341875,23.630825 12.3484648,23.5600891 12.3484648,23.4856123 L12.3484648,12.365299 L23.8360906,6.9498874 L23.8360906,18.1011449 L12.3085359,23.6945638 Z" id="Combined-Shape"></path>
            <polygon id="Combined-Shape" points="11.4421555 23.4769418 0 18.2050628 0 6.91351359 11.4421555 12.3771511"></polygon>
        </g>
    </g>
</svg>
