<svg class='Icon' width="24px" height="13px" viewBox="0 0 24 13" version="1.1" xmlns="http://www.w3.org/2000/svg" xmlns:xlink="http://www.w3.org/1999/xlink">
    <title>icon-sequencing</title>
    <g id="sequencing-icon" stroke="none" stroke-width="1" fill="none" fill-rule="evenodd">
        <g id="sequencing" fill="#000000" fill-rule="nonzero">
            <path d="M1.03448276,2.06896552 C0.463153709,2.06896552 0,1.60581181 0,1.03448276 C0,0.463153709 0.463153709,0 1.03448276,0 L21.1034483,0 C21.6747773,0 22.137931,0.463153709 22.137931,1.03448276 C22.137931,1.60581181 21.6747773,2.06896552 21.1034483,2.06896552 L1.03448276,2.06896552 Z" id="Line"></path>
            <path d="M2.48275862,4.55172414 C2.254227,4.55172414 2.06896552,4.36646263 2.06896552,4.13793103 C2.06896552,3.90939941 2.254227,3.72413793 2.48275862,3.72413793 L18.2068966,3.72413793 C18.4354282,3.72413793 18.6206897,3.90939941 18.6206897,4.13793103 C18.6206897,4.36646263 18.4354282,4.55172414 18.2068966,4.55172414 L2.48275862,4.55172414 Z" id="Line"></path>
            <path d="M4.13793103,6.20689655 C3.90939941,6.20689655 3.72413793,6.02163505 3.72413793,5.79310345 C3.72413793,5.56457185 3.90939941,5.37931034 4.13793103,5.37931034 L19.862069,5.37931034 C20.0906006,5.37931034 20.2758621,5.56457185 20.2758621,5.79310345 C20.2758621,6.02163505 20.0906006,6.20689655 19.862069,6.20689655 L4.13793103,6.20689655 Z" id="Line"></path>
            <path d="M5.79310345,7.86206897 C5.56457185,7.86206897 5.37931034,7.67680746 5.37931034,7.44827586 C5.37931034,7.21974426 5.56457185,7.03448276 5.79310345,7.03448276 L21.5172414,7.03448276 C21.745773,7.03448276 21.9310345,7.21974426 21.9310345,7.44827586 C21.9310345,7.67680746 21.745773,7.86206897 21.5172414,7.86206897 L5.79310345,7.86206897 Z" id="Line"></path>
            <path d="M7.03448276,9.51724138 C6.80595116,9.51724138 6.62068966,9.33197988 6.62068966,9.10344828 C6.62068966,8.87491668 6.80595116,8.68965517 7.03448276,8.68965517 L22.7586207,8.68965517 C22.9871523,8.68965517 23.1724138,8.87491668 23.1724138,9.10344828 C23.1724138,9.33197988 22.9871523,9.51724138 22.7586207,9.51724138 L7.03448276,9.51724138 Z" id="Line"></path>
            <path d="M7.86206897,11.1724138 C7.63353737,11.1724138 7.44827586,10.9871523 7.44827586,10.7586207 C7.44827586,10.5300891 7.63353737,10.3448276 7.86206897,10.3448276 L23.5862069,10.3448276 C23.8147385,10.3448276 24,10.5300891 24,10.7586207 C24,10.9871523 23.8147385,11.1724138 23.5862069,11.1724138 L7.86206897,11.1724138 Z" id="Line"></path>
            <path d="M9.10344828,0.206896552 L9.10344828,12.2354002 C9.10344828,12.349666 9.19607901,12.4422967 9.31034483,12.4422967 C9.42461065,12.4422967 9.51724138,12.349666 9.51724138,12.2354002 L9.51724138,0.206896552 C9.51724138,0.0926307414 9.42461065,0 9.31034483,0 C9.19607901,0 9.10344828,0.0926307414 9.10344828,0.206896552 Z" id="Line-2"></path>
        </g>
    </g>
</svg>
