<svg class='Icon' width="24px" height="18px" viewBox="0 0 24 18" version="1.1" xmlns="http://www.w3.org/2000/svg" xmlns:xlink="http://www.w3.org/1999/xlink">
    <title>icon-upload</title>
    <g id="upload-icon" stroke="none" stroke-width="1" fill="none" fill-rule="evenodd">
        <g id="upload" transform="translate(0.000000, 0.700000)" fill="#000000" fill-rule="nonzero">
            <path d="M20.16,7.2975 C20.31375,6.89625 20.4,6.4575 20.4,6 C20.4,4.0125 18.7875,2.4 16.8,2.4 C16.06125,2.4 15.37125,2.625 14.80125,3.0075 C13.7625,1.2075 11.82375,0 9.6,0 C6.285,0 3.6,2.685 3.6,6 C3.6,6.10125 3.60375,6.2025 3.6075,6.30375 C1.5075,7.0425 0,9.045 0,11.4 C0,14.38125 2.41875,16.8 5.4,16.8 L19.2,16.8 C21.85125,16.8 24,14.65125 24,12 C24,9.67875 22.35,7.74 20.16,7.2975 Z M14.7525,9.6 L12.3,9.6 L12.3,13.8 C12.3,14.13 12.03,14.4 11.7,14.4 L9.9,14.4 C9.57,14.4 9.3,14.13 9.3,13.8 L9.3,9.6 L6.8475,9.6 C6.31125,9.6 6.045,8.955 6.42375,8.57625 L10.37625,4.62375 C10.60875,4.39125 10.99125,4.39125 11.22375,4.62375 L15.17625,8.57625 C15.555,8.955 15.285,9.6 14.7525,9.6 L14.7525,9.6 Z" id="upload-icon"></path>
        </g>
    </g>
</svg>
