<svg class='Icon' width="24px" height="25px" viewBox="0 0 24 25" version="1.1" xmlns="http://www.w3.org/2000/svg" xmlns:xlink="http://www.w3.org/1999/xlink">
    <title>icon-clinical</title>
    <g id="clinical-icon" stroke="none" stroke-width="1" fill="none" fill-rule="evenodd">
        <g id="clinical" fill="#000000" fill-rule="nonzero">
            <path d="M9.65863149,22.8918746 L9.65863149,22.8612517 C12.5418804,22.8612517 14.8702772,19.9674224 15.2864162,17.971678 C14.8282369,17.704957 14.4775772,17.2846965 14.295609,16.7842101 C12.2864969,15.7190287 10.7198566,13.9678704 9.87660902,11.8447428 C9.67954633,11.4675834 9.67585462,11.0177057 9.86670095,10.6373175 C9.15569338,8.87986902 8.76954189,7.00636145 8.72727273,5.10910559 C8.72727273,2.44478685 8.83626153,0.768361585 11.0655777,0.329297818 C11.2765473,0.118872771 11.5613028,0.000573585455 11.8582234,0 L13.5624117,0 C13.8672347,0 14.1595729,0.121953884 14.3751152,0.339033193 C14.5906576,0.556112502 14.7117481,0.850535229 14.7117481,1.15753173 C14.6905287,1.78284036 14.1836359,2.28014474 13.5624117,2.2851273 L11.8780396,2.2851273 C11.7134258,2.28419564 11.5510412,2.24671716 11.4024521,2.17536136 C10.9962212,2.26516986 10.8872324,2.3749358 10.8872324,2.44478685 C10.6395477,3.30257631 10.5521967,4.19923359 10.6296225,5.08914814 C10.6637336,6.75622887 10.999498,8.40306116 11.6204297,9.94878567 C11.9149619,10.0766468 12.1540713,10.3068371 12.2941785,10.5974026 C13.4236987,12.9623597 14.9099095,14.4292318 16.2574072,14.4292318 C17.604905,14.4292318 19.1901964,12.8825299 20.3098086,10.4377431 C20.4620001,10.1040572 20.7402175,9.84540989 21.0826382,9.71927505 C21.6561695,8.25938102 21.9681481,6.70863615 22.0040888,5.13904175 C22.0764218,4.25116316 21.9823108,3.35750386 21.7266628,2.50465919 C21.6870305,2.43480813 21.607766,2.30508475 21.1519947,2.22525497 C20.9917073,2.30461035 20.8153809,2.34559118 20.6367749,2.34499964 L18.9325866,2.34499964 C18.3239533,2.34611666 17.8199772,1.86917612 17.7832503,1.25731895 L17.7832503,1.19744662 C17.7832503,0.558159498 18.2978257,0.0399148873 18.9325866,0.0399148873 L20.6565911,0.0399148873 C20.9391234,0.0400931564 21.2113308,0.146904233 21.4195126,0.339276545 C22.2032746,0.41389256 22.9124347,0.838759956 23.3515865,1.49680828 C23.827174,2.26516986 23.9163467,3.3328931 23.9163467,5.15899919 C23.8751977,7.01370764 23.5026504,8.84578385 22.8165507,10.5674664 C22.9286814,10.8940423 22.9109273,11.2516565 22.7670103,11.5653386 C22.1467458,12.9843263 21.2774322,14.2790027 20.2008198,15.3871891 C19.6629243,15.9132365 19.0438936,16.3479628 18.3678265,16.6744442 C18.1704631,17.2504159 17.758253,17.7264061 17.2184902,18.0016142 C16.937379,19.5848724 16.1879668,21.0456902 15.0684386,22.1926774 C13.8118334,23.6290575 12.0614324,24.5207421 10.1818182,24.6969175 L10.1818182,24.7272727 C10.0909764,24.7254033 10.0003409,24.7220881 9.90994742,24.7173423 C9.82638305,24.7220704 9.74260058,24.7253855 9.65863149,24.7272727 L9.65863149,24.7004207 C7.65804218,24.53597 5.79359906,23.6703203 4.45704754,22.2715188 C3.27233948,21.1602098 2.47929593,19.7448323 2.18181818,18.2108231 L4.22637913,18.1818182 C4.64127881,20.0036551 6.85248102,22.5979065 9.65863149,22.8918746 Z" id="Combined-Shape"></path>
            <path d="M2.90909091,18.9090909 C4.51573745,18.9090909 5.81818182,17.6066465 5.81818182,16 C5.81818182,14.3933535 4.51573745,13.0909091 2.90909091,13.0909091 C1.30244436,13.0909091 0,14.3933535 0,16 C0,17.6066465 1.30244436,18.9090909 2.90909091,18.9090909 Z M2.90909091,17.4545455 C2.10576764,17.4545455 1.45454545,16.8033233 1.45454545,16 C1.45454545,15.1966767 2.10576764,14.5454545 2.90909091,14.5454545 C3.71241418,14.5454545 4.36363636,15.1966767 4.36363636,16 C4.36363636,16.8033233 3.71241418,17.4545455 2.90909091,17.4545455 Z" id="Oval-2"></path>
        </g>
    </g>
</svg>
