<svg class='Icon' width="24px" height="22px" viewBox="0 0 24 22" version="1.1" xmlns="http://www.w3.org/2000/svg" xmlns:xlink="http://www.w3.org/1999/xlink">
    <title>icon-notification</title>
    <g id="notification-icon" stroke="none" stroke-width="1" fill="none" fill-rule="evenodd">
        <g id="notification" fill="#00ACEB" fill-rule="nonzero">
            <path d="M16.775,3.46666667 L20.5333333,7.225 C20.6916667,7.38333333 20.6916667,7.64166667 20.5333333,7.8 L11.4333333,16.9 L7.56666667,17.3291667 C7.05,17.3875 6.6125,16.95 6.67083333,16.4333333 L7.1,12.5666667 L16.2,3.46666667 C16.3583333,3.30833333 16.6166667,3.30833333 16.775,3.46666667 Z M23.525,2.5125 L21.4916667,0.479166667 C20.8583333,-0.154166667 19.8291667,-0.154166667 19.1916667,0.479166667 L17.7166667,1.95416667 C17.5583333,2.1125 17.5583333,2.37083333 17.7166667,2.52916667 L21.475,6.2875 C21.6333333,6.44583333 21.8916667,6.44583333 22.05,6.2875 L23.525,4.8125 C24.1583333,4.175 24.1583333,3.14583333 23.525,2.5125 Z M16,14.425 L16,18.6666667 L2.66666667,18.6666667 L2.66666667,5.33333333 L12.2416667,5.33333333 C12.375,5.33333333 12.5,5.27916667 12.5958333,5.1875 L14.2625,3.52083333 C14.5791667,3.20416667 14.3541667,2.66666667 13.9083333,2.66666667 L2,2.66666667 C0.895833333,2.66666667 0,3.5625 0,4.66666667 L0,19.3333333 C0,20.4375 0.895833333,21.3333333 2,21.3333333 L16.6666667,21.3333333 C17.7708333,21.3333333 18.6666667,20.4375 18.6666667,19.3333333 L18.6666667,12.7583333 C18.6666667,12.3125 18.1291667,12.0916667 17.8125,12.4041667 L16.1458333,14.0708333 C16.0541667,14.1666667 16,14.2916667 16,14.425 Z" id="notification-icon"></path>
        </g>
    </g>
</svg>
