<svg class='Icon' width="24px" height="24px" viewBox="0 0 24 24" version="1.1" xmlns="http://www.w3.org/2000/svg" xmlns:xlink="http://www.w3.org/1999/xlink">
    <title>icon-misc</title>
    <g id="misc-icon" stroke="none" stroke-width="1" fill="none" fill-rule="evenodd">
        <g id="misc" fill="#343434" fill-rule="nonzero">
            <path d="M12,0 C18.6290323,0 24,5.37096774 24,12 C24,18.6290323 18.6290323,24 12,24 C5.37096774,24 0,18.6251613 0,12 C0,5.37483871 5.37096774,0 12,0 Z M12,21.6774194 C14.5670835,21.678961 17.0294688,20.6598737 18.8446713,18.8446713 C20.6598737,17.0294688 21.678961,14.5670835 21.6774194,12 C21.6774194,6.65530887 17.3446911,2.32258065 12,2.32258065 C6.65530887,2.32258065 2.32258065,6.65530887 2.32258065,12 C2.32258065,17.3446911 6.65530887,21.6774194 12,21.6774194 Z M17.1890323,9.32903226 C17.1890323,12.5733871 13.6848387,12.6232258 13.6848387,13.8222581 L13.6848387,14.1290323 C13.6848387,14.4497137 13.424875,14.7096774 13.1041935,14.7096774 L10.8958065,14.7096774 C10.575125,14.7096774 10.3151613,14.4497137 10.3151613,14.1290323 L10.3151613,13.71 C10.3151613,11.9806452 11.6264516,11.2906452 12.6174194,10.7332258 C13.4670968,10.2566129 13.9877419,9.93290323 13.9877419,9.30193548 C13.9877419,8.46725806 12.9232258,7.91370968 12.0629032,7.91370968 C10.9408065,7.91370968 10.4230645,8.44596774 9.69483871,9.36532258 C9.49877459,9.61348415 9.1401639,9.65909031 8.88822581,9.46790323 L7.54209677,8.44693548 C7.29490392,8.25954555 7.23865212,7.91095483 7.41435484,7.65532258 C8.55725806,5.97532258 10.0132258,5.03225806 12.2801613,5.03225806 C14.6545161,5.03225806 17.1890323,6.88548387 17.1890323,9.32903226 Z M14.0322581,17.4193548 C14.0322581,18.54174 13.1223851,19.4516129 12,19.4516129 C10.8776149,19.4516129 9.96774194,18.54174 9.96774194,17.4193548 C9.96774194,16.2969697 10.8776149,15.3870968 12,15.3870968 C13.1223851,15.3870968 14.0322581,16.2969697 14.0322581,17.4193548 Z" id="Combined-Shape"></path>
        </g>
    </g>
</svg>
