<svg class='Icon' width="24px" height="24px" viewBox="0 0 24 24" version="1.1" xmlns="http://www.w3.org/2000/svg" xmlns:xlink="http://www.w3.org/1999/xlink">
    <title>icon-error</title>
    <g id="error-icon" stroke="none" stroke-width="1" fill="none" fill-rule="evenodd">
        <g id="error" fill-rule="nonzero">
            <circle id="Oval" fill="#FFFFFF" cx="12" cy="12" r="10.9787234"></circle>
            <path d="M12,24 C5.372583,24 8.11624501e-16,18.627417 0,12 C-8.11624501e-16,5.372583 5.372583,1.21743675e-15 12,0 C18.627417,-1.21743675e-15 24,5.372583 24,12 C24,15.1825979 22.7357179,18.2348448 20.4852814,20.4852814 C18.2348448,22.7357179 15.1825979,24 12,24 Z M12,2.04255319 C6.50065398,2.04255319 2.04255319,6.50065398 2.04255319,12 C2.04255319,17.499346 6.50065398,21.9574468 12,21.9574468 C17.499346,21.9574468 21.9574468,17.499346 21.9574468,12 C21.9574468,6.50065398 17.499346,2.04255319 12,2.04255319 Z" id="Shape" fill="#E45562"></path>
            <path d="M15.2757447,16.3582979 C14.9878593,16.3569174 14.7123221,16.2411918 14.5097872,16.0365957 L12,13.5446809 L9.49787234,16.0417021 C9.06892395,16.4624284 8.38213988,16.4624284 7.95319149,16.0417021 C7.53259573,15.6176715 7.53259573,14.9338179 7.95319149,14.5097872 L10.4680851,12 L7.96851064,9.49787234 C7.54503459,9.07005106 7.54503459,8.38101277 7.96851064,7.95319149 C8.40136269,7.53720286 9.08544582,7.53720286 9.51829787,7.95319149 L12.0153191,10.4680851 L14.4919149,8.00425532 C14.9181858,7.5891351 15.5975588,7.5891351 16.0238298,8.00425532 C16.2310775,8.20780496 16.347824,8.48610637 16.347824,8.77659574 C16.347824,9.06708511 16.2310775,9.34538653 16.0238298,9.54893617 L13.56,12 L16.0468085,14.4868085 C16.4719722,14.9149303 16.4719722,15.6059207 16.0468085,16.0340426 C15.8442737,16.2386386 15.5687364,16.3543642 15.2808511,16.3557447 L15.2757447,16.3582979 Z" id="Shape" fill="#E45562"></path>
        </g>
    </g>
</svg>
